<svg clip-rule="evenodd" fill-rule="evenodd" stroke-linejoin="round" stroke-miterlimit="2" viewBox="0 0 96 96" xmlns="http://www.w3.org/2000/svg" xmlns:serif="http://www.serif.com/"><g><path d="m63.5 67.896c-2.791 2.179-6.052 3.784-9.605 4.636-.805.193-1.302 1.003-1.109 1.808s1.003 1.302 1.809 1.109c3.976-.953 7.626-2.749 10.751-5.188.653-.509.769-1.452.259-2.105-.509-.653-1.452-.769-2.105-.26zm-38.844-10.327c-1.213-2.951-1.881-6.183-1.881-9.569 0-.828-.672-1.5-1.5-1.5s-1.5.672-1.5 1.5c0 3.79.749 7.406 2.106 10.709.314.766 1.191 1.132 1.957.817.766-.314 1.132-1.191.818-1.957zm5.466-27.358c4.57-4.592 10.894-7.436 17.878-7.436 13.922 0 25.225 11.303 25.225 25.225 0 1.344-.105 2.664-.308 3.952-.129.817.431 1.586 1.248 1.715.818.129 1.587-.431 1.716-1.249.226-1.439.344-2.915.344-4.418 0-15.578-12.647-28.225-28.225-28.225-7.814 0-14.891 3.182-20.004 8.32-.584.587-.582 1.538.005 2.122s1.537.581 2.121-.006z"/><path d="m46.5 2v8.205c0 .828.672 1.5 1.5 1.5s1.5-.672 1.5-1.5v-8.205c0-.828-.672-1.5-1.5-1.5s-1.5.672-1.5 1.5z"/><path d="m46.5 85.795v8.205c0 .828.672 1.5 1.5 1.5s1.5-.672 1.5-1.5v-8.205c0-.828-.672-1.5-1.5-1.5s-1.5.672-1.5 1.5z"/><path d="m14.412 16.534 5.802 5.801c.586.586 1.536.586 2.121 0 .586-.585.586-1.535 0-2.121l-5.801-5.802c-.586-.585-1.536-.585-2.122 0-.585.586-.585 1.536 0 2.122z"/><path d="m73.665 75.786 5.801 5.802c.586.585 1.536.585 2.122 0 .585-.586.585-1.536 0-2.122l-5.802-5.801c-.586-.586-1.536-.586-2.121 0-.586.585-.586 1.535 0 2.121z"/><path d="m79.466 14.412-5.801 5.802c-.586.586-.586 1.536 0 2.121.585.586 1.535.586 2.121 0l5.802-5.801c.585-.586.585-1.536 0-2.122-.586-.585-1.536-.585-2.122 0z"/><path d="m2 49.5h8.205c.828 0 1.5-.672 1.5-1.5s-.672-1.5-1.5-1.5h-8.205c-.828 0-1.5.672-1.5 1.5s.672 1.5 1.5 1.5z"/><path d="m85.795 49.5h8.205c.828 0 1.5-.672 1.5-1.5s-.672-1.5-1.5-1.5h-8.205c-.828 0-1.5.672-1.5 1.5s.672 1.5 1.5 1.5z"/><path d="m82.322 55.193c-1.208-2.63-3.866-4.459-6.947-4.459-.243 0-.483.011-.719.034-1.757-2.576-4.715-4.268-8.065-4.268-.828 0-1.5.672-1.5 1.5s.672 1.5 1.5 1.5c2.594 0 4.848 1.466 5.981 3.613.322.61 1.018.922 1.687.756.357-.088.731-.135 1.116-.135 2.106 0 3.886 1.406 4.452 3.33.198.672.834 1.118 1.533 1.074.051-.003.102-.004.154-.004 1.347 0 2.44 1.093 2.44 2.439 0 1.347-1.093 2.44-2.44 2.44h-21.206c-1.899 0-3.442-1.542-3.442-3.442 0-1.437.883-2.67 2.135-3.185.486-.201.832-.641.911-1.16.287-1.876 1.348-3.498 2.845-4.532.681-.471.851-1.406.381-2.087-.471-.681-1.406-.852-2.087-.381-1.949 1.347-3.383 3.385-3.95 5.758-1.932 1.112-3.235 3.198-3.235 5.587 0 3.555 2.887 6.442 6.442 6.442h21.206c3.003 0 5.44-2.437 5.44-5.44 0-2.728-2.013-4.99-4.632-5.38z"/><path d="m37.402 33.426c-1.118-2.36-3.523-3.993-6.307-3.993-.189 0-.377.007-.562.022-1.602-2.296-4.264-3.8-7.274-3.8-4.158 0-7.651 2.87-8.607 6.734-1.739 1.027-2.907 2.923-2.907 5.089 0 3.261 2.648 5.909 5.909 5.909.828 0 1.5-.673 1.5-1.5 0-.828-.672-1.5-1.5-1.5-1.605 0-2.909-1.304-2.909-2.909 0-1.215.746-2.256 1.805-2.692.486-.2.832-.64.911-1.16.431-2.813 2.865-4.971 5.798-4.971 2.252 0 4.209 1.273 5.192 3.137.322.61 1.018.922 1.687.756.307-.075.627-.115.957-.115 1.806 0 3.332 1.205 3.817 2.854.197.672.833 1.118 1.532 1.074.043-.002.085-.004.128-.004 1.112 0 2.015.903 2.015 2.015s-.903 2.015-2.015 2.015h-13.313c-.828 0-1.5.672-1.5 1.5 0 .827.672 1.5 1.5 1.5h13.313c2.768 0 5.015-2.247 5.015-5.015 0-2.485-1.811-4.55-4.185-4.946z"/><path d="m44.026 67.252c-1.37-3.14-4.503-5.336-8.144-5.336-.343 0-.682.02-1.015.058-.386-.587-.825-1.135-1.31-1.64-.574-.597-1.525-.615-2.121-.041-.597.574-.616 1.524-.042 2.121.547.568 1.015 1.213 1.386 1.917.322.61 1.018.922 1.687.756.453-.112.927-.171 1.415-.171 2.67 0 4.927 1.783 5.644 4.222.197.672.833 1.118 1.532 1.074.068-.004.137-.006.205-.006 1.787 0 3.237 1.45 3.237 3.236 0 1.787-1.45 3.237-3.237 3.237h-25.495c-2.452 0-4.442-1.99-4.442-4.442 0-1.854 1.138-3.445 2.754-4.11.486-.2.832-.64.911-1.16.619-4.042 4.116-7.141 8.33-7.141.637 0 1.257.07 1.854.204.808.182 1.611-.326 1.792-1.134.182-.808-.326-1.611-1.134-1.793-.809-.181-1.649-.277-2.512-.277-5.436 0-9.99 3.804-11.144 8.893-2.295 1.267-3.851 3.712-3.851 6.518 0 4.107 3.334 7.442 7.442 7.442h25.495c3.442 0 6.237-2.795 6.237-6.237 0-3.184-2.391-5.813-5.474-6.19z"/></g></svg>