<svg id="Layer_1" enable-background="new 0 0 64 64" height="512" viewBox="0 0 64 64" width="512" xmlns="http://www.w3.org/2000/svg"><path d="m55.994 13.886c-.018-.151-.196-1.502-1.115-2.422l-10.343-10.342c-.919-.919-2.271-1.098-2.422-1.115-.038-.005-.076-.007-.114-.007h-29c-2.757 0-5 2.243-5 5v54c0 2.757 2.243 5 5 5h38c2.757 0 5-2.243 5-5v-45c0-.038-.002-.076-.006-.114zm-2.53-1.008c.035.035.06.082.091.122h-7.555c-1.654 0-3-1.346-3-3v-7.555c.04.031.086.056.122.091zm-2.464 49.122h-38c-1.654 0-3-1.346-3-3v-54c0-1.654 1.346-3 3-3h28v8c0 2.757 2.243 5 5 5h8v44c0 1.654-1.346 3-3 3z"/></svg>