<?xml version="1.0" encoding="UTF-8" standalone="no"?>
<!-- Created with Inkscape (http://www.inkscape.org/) -->

<svg
   version="1.1"
   id="svg2838"
   xml:space="preserve"
   width="682.66669"
   height="682.66669"
   viewBox="0 0 682.66669 682.66669"
   xmlns="http://www.w3.org/2000/svg"
   xmlns:svg="http://www.w3.org/2000/svg"><defs
     id="defs2842"><clipPath
       clipPathUnits="userSpaceOnUse"
       id="clipPath2852"><path
         d="M 0,512 H 512 V 0 H 0 Z"
         id="path2850" /></clipPath></defs><g
     id="g2844"
     transform="matrix(1.3333333,0,0,-1.3333333,0,682.66667)"><g
       id="g2846"><g
         id="g2848"
         clip-path="url(#clipPath2852)"><g
           id="g2854"
           transform="translate(295.7769,462.8633)"><path
             d="m 0,0 -14.91,29.396 c -2.013,3.968 -3.487,3.968 -5.499,0 L -35.291,0 -64.686,-14.882 c -3.968,-2.013 -3.968,-3.487 0,-5.499 l 29.395,-14.911 14.882,-29.396 c 2.012,-3.968 3.514,-3.94 5.527,0.029 L 0,-35.292 29.366,-20.41 c 3.968,2.013 3.997,3.515 0.029,5.528 z"
             style="fill:none;stroke:#000000;stroke-width:15;stroke-linecap:round;stroke-linejoin:round;stroke-miterlimit:10;stroke-dasharray:none;stroke-opacity:1"
             id="path2856" /></g><g
           id="g2858"
           transform="translate(78.9009,403.4199)"><path
             d="m 0,0 -14.91,29.396 c -2.012,3.968 -3.486,3.94 -5.499,-0.029 L -35.319,0 -64.686,-14.91 c -3.968,-2.013 -3.997,-3.487 -0.028,-5.499 l 29.395,-14.911 14.91,-29.396 c 2.013,-3.969 3.487,-3.94 5.499,0.028 L 0,-35.32 29.367,-20.409 c 3.968,2.012 3.996,3.486 0.028,5.499 z"
             style="fill:none;stroke:#000000;stroke-width:15;stroke-linecap:round;stroke-linejoin:round;stroke-miterlimit:10;stroke-dasharray:none;stroke-opacity:1"
             id="path2860" /></g><g
           id="g2862"
           transform="translate(382.459,286.4893)"><path
             d="m 0,0 c -10.432,-27.922 -26.844,-54.086 -49.266,-76.536 -76.279,-76.253 -195.701,-83.028 -279.633,-20.325 -15.335,11.48 -19.02,7.965 -10.205,-9.241 10.97,-21.402 25.426,-41.5 43.37,-59.415 48.585,-48.587 112.987,-71.689 176.624,-69.308 m 167.695,78.663 c 83.649,93.119 80.701,236.525 -8.872,326.101 -17.915,17.915 -38.012,32.373 -59.442,43.371 -17.178,8.816 -20.692,5.13 -9.241,-10.205 C 7.455,154.377 20.437,93.687 10.006,36.426"
             style="fill:none;stroke:#000000;stroke-width:15;stroke-linecap:round;stroke-linejoin:round;stroke-miterlimit:10;stroke-dasharray:none;stroke-opacity:1"
             id="path2864" /></g><g
           id="g2866"
           transform="translate(372.6797,7.5)"><path
             d="m 0,0 h 81.636 c 25.654,0 46.46,20.807 46.46,46.46 0,25.654 -20.806,46.461 -46.46,46.461 -2.806,18.652 -18.907,32.939 -38.352,32.939 -3.628,0 -7.115,-0.482 -10.459,-1.418 -7.172,17.604 -24.463,29.992 -44.674,29.992 -17.659,0 -33.136,-9.497 -41.527,-23.67 -0.708,0.028 -1.417,0.056 -2.126,0.056 -19.871,0 -35.943,-16.1 -35.943,-35.943 0,-3.345 0.454,-6.605 1.304,-9.694 C -101.848,76.621 -109.444,62.76 -109.444,47.141 -109.444,21.09 -88.327,0 -62.276,0 h 27.637"
             style="fill:none;stroke:#000000;stroke-width:15;stroke-linecap:round;stroke-linejoin:round;stroke-miterlimit:10;stroke-dasharray:none;stroke-opacity:1"
             id="path2868" /></g><g
           id="g2870"
           transform="translate(150.2764,240.8789)"><path
             d="m 0,0 c -16.611,0 -30.075,13.493 -30.075,30.104 0,14.231 9.921,26.165 23.215,29.283 -0.425,2.693 -0.652,5.471 -0.652,8.305 0,29.084 23.584,52.641 52.639,52.641 21.118,0 39.316,-12.416 47.706,-30.359 1.616,0.198 3.26,0.283 4.933,0.283 24.916,0 45.127,-20.211 45.127,-45.128 C 142.893,20.212 122.682,0 97.766,0 Z"
             style="fill:none;stroke:#000000;stroke-width:15;stroke-linecap:round;stroke-linejoin:round;stroke-miterlimit:10;stroke-dasharray:none;stroke-opacity:1"
             id="path2872" /></g></g></g></g></svg>
