<?xml version="1.0" encoding="UTF-8" standalone="no"?>
<!-- Created with Inkscape (http://www.inkscape.org/) -->

<svg
   version="1.1"
   id="svg2130"
   xml:space="preserve"
   width="682.66669"
   height="682.66669"
   viewBox="0 0 682.66669 682.66669"
   xmlns="http://www.w3.org/2000/svg"
   xmlns:svg="http://www.w3.org/2000/svg"><defs
     id="defs2134"><clipPath
       clipPathUnits="userSpaceOnUse"
       id="clipPath2144"><path
         d="M 0,512 H 512 V 0 H 0 Z"
         id="path2142" /></clipPath></defs><g
     id="g2136"
     transform="matrix(1.3333333,0,0,-1.3333333,0,682.66667)"><g
       id="g2138"><g
         id="g2140"
         clip-path="url(#clipPath2144)"><g
           id="g2146"
           transform="translate(9.998,149.9985)"><path
             d="M 0,0 C 120.776,0 185.917,-26.533 246.857,-53.998"
             style="fill:none;stroke:#000000;stroke-width:20;stroke-linecap:round;stroke-linejoin:round;stroke-miterlimit:22.926;stroke-dasharray:none;stroke-opacity:1"
             id="path2148" /></g><g
           id="g2150"
           transform="translate(490.7998,96.0962)"><path
             d="m 0,0 c 3.678,-0.061 7.405,-0.096 11.2,-0.096 m -492.002,114 c 212.553,0 252.817,-82.164 401.102,-106.976"
             style="fill:none;stroke:#000000;stroke-width:20;stroke-linecap:round;stroke-linejoin:round;stroke-miterlimit:22.926;stroke-dasharray:none;stroke-opacity:1"
             id="path2152" /></g><g
           id="g2154"
           transform="translate(502,149.9985)"><path
             d="M 0,0 C -75.302,0 -128.974,-10.315 -173.487,-24.738"
             style="fill:none;stroke:#000000;stroke-width:20;stroke-linecap:round;stroke-linejoin:round;stroke-miterlimit:22.926;stroke-dasharray:none;stroke-opacity:1"
             id="path2156" /></g><g
           id="g2158"
           transform="translate(502,210.0005)"><path
             d="M 0,0 C -120.212,0 -185.305,-26.286 -246.001,-53.613"
             style="fill:none;stroke:#000000;stroke-width:20;stroke-linecap:round;stroke-linejoin:round;stroke-miterlimit:22.926;stroke-dasharray:none;stroke-opacity:1"
             id="path2160" /></g><g
           id="g2162"
           transform="translate(203.7725,324.0674)"><path
             d="m 0,0 c 15.788,7.646 33.507,11.933 52.227,11.933 66.274,0 120,-53.725 120,-120 0,-6.031 -0.455,-12.053 -1.36,-18.015 m -237.342,0.41 c -0.865,5.828 -1.298,11.713 -1.298,17.605 0,18.331 4.116,35.698 11.464,51.237"
             style="fill:none;stroke:#000000;stroke-width:20;stroke-linecap:round;stroke-linejoin:round;stroke-miterlimit:22.926;stroke-dasharray:none;stroke-opacity:1"
             id="path2164" /></g><g
           id="g2166"
           transform="translate(255.999,396.0015)"><path
             d="M 0,0 V 19.999"
             style="fill:none;stroke:#000000;stroke-width:20;stroke-linecap:round;stroke-linejoin:round;stroke-miterlimit:22.926;stroke-dasharray:none;stroke-opacity:1"
             id="path2168" /></g><g
           id="g2170"
           transform="translate(194.4355,385.146)"><path
             d="M 0,0 -6.841,18.793"
             style="fill:none;stroke:#000000;stroke-width:20;stroke-linecap:round;stroke-linejoin:round;stroke-miterlimit:22.926;stroke-dasharray:none;stroke-opacity:1"
             id="path2172" /></g><g
           id="g2174"
           transform="translate(140.2969,353.8892)"><path
             d="M 0,0 -12.855,15.32"
             style="fill:none;stroke:#000000;stroke-width:20;stroke-linecap:round;stroke-linejoin:round;stroke-miterlimit:22.926;stroke-dasharray:none;stroke-opacity:1"
             id="path2176" /></g><g
           id="g2178"
           transform="translate(100.1133,306.001)"><path
             d="M 0,0 -17.319,10"
             style="fill:none;stroke:#000000;stroke-width:20;stroke-linecap:round;stroke-linejoin:round;stroke-miterlimit:22.926;stroke-dasharray:none;stroke-opacity:1"
             id="path2180" /></g><g
           id="g2182"
           transform="translate(78.7324,247.2573)"><path
             d="M 0,0 -19.694,3.473"
             style="fill:none;stroke:#000000;stroke-width:20;stroke-linecap:round;stroke-linejoin:round;stroke-miterlimit:22.926;stroke-dasharray:none;stroke-opacity:1"
             id="path2184" /></g><g
           id="g2186"
           transform="translate(433.2656,247.2573)"><path
             d="M 0,0 19.695,3.473"
             style="fill:none;stroke:#000000;stroke-width:20;stroke-linecap:round;stroke-linejoin:round;stroke-miterlimit:22.926;stroke-dasharray:none;stroke-opacity:1"
             id="path2188" /></g><g
           id="g2190"
           transform="translate(411.8848,306.001)"><path
             d="M 0,0 17.319,10"
             style="fill:none;stroke:#000000;stroke-width:20;stroke-linecap:round;stroke-linejoin:round;stroke-miterlimit:22.926;stroke-dasharray:none;stroke-opacity:1"
             id="path2192" /></g><g
           id="g2194"
           transform="translate(371.7012,353.8892)"><path
             d="M 0,0 12.855,15.32"
             style="fill:none;stroke:#000000;stroke-width:20;stroke-linecap:round;stroke-linejoin:round;stroke-miterlimit:22.926;stroke-dasharray:none;stroke-opacity:1"
             id="path2196" /></g><g
           id="g2198"
           transform="translate(317.5635,385.146)"><path
             d="M 0,0 6.84,18.793"
             style="fill:none;stroke:#000000;stroke-width:20;stroke-linecap:round;stroke-linejoin:round;stroke-miterlimit:22.926;stroke-dasharray:none;stroke-opacity:1"
             id="path2200" /></g><g
           id="g2202"
           transform="translate(170.7852,300.4907)"><path
             d="M 0,0 -0.005,-0.005"
             style="fill:none;stroke:#000000;stroke-width:20;stroke-linecap:round;stroke-linejoin:round;stroke-miterlimit:2.613;stroke-dasharray:none;stroke-opacity:1"
             id="path2204" /></g><g
           id="g2206"
           transform="translate(450.8232,98.061)"><path
             d="M 0,0 0.007,-0.001"
             style="fill:none;stroke:#000000;stroke-width:20;stroke-linecap:round;stroke-linejoin:round;stroke-miterlimit:2.613;stroke-dasharray:none;stroke-opacity:1"
             id="path2208" /></g></g></g></g></svg>
