<svg height="512" viewBox="0 0 64 64" width="512" xmlns="http://www.w3.org/2000/svg"><g id="Layer_31" data-name="Layer 31"><path d="m55.46 2.5h-46.92a6 6 0 0 0 -6 6v46.96a6 6 0 0 0 6 6h46.92a6 6 0 0 0 6-6v-46.92a6 6 0 0 0 -6-6.04zm-34.29 56h-12.63a3 3 0 0 1 -3-3v-5.2h15.63zm0-11.2h-15.67v-8.2h15.67zm0-11.2h-15.67v-8.2h15.67zm0-11.2h-15.67v-8.2h15.67zm18.66 33.6h-15.66v-8.2h15.66zm0-11.2h-15.66v-8.2h15.66zm0-11.2h-15.66v-8.2h15.66zm0-11.2h-15.66v-8.2h15.66zm18.67 30.56a3 3 0 0 1 -3 3h-12.67v-8.16h15.67zm0-8.16h-15.67v-8.2h15.67zm0-11.2h-15.67v-8.2h15.67zm0-11.2h-15.67v-8.2h15.67z"/></g></svg>