<svg id="Layer_1" enable-background="new 0 0 24 24" height="512" viewBox="0 0 24 24" width="512" xmlns="http://www.w3.org/2000/svg"><g><path d="m20.71 5.29-5-5c-.19-.18-.44-.29-.71-.29h-11c-1.65 0-3 1.35-3 3v18c0 1.65 1.35 3 3 3h10c.55 0 1-.45 1-1s-.45-1-1-1h-10c-.55 0-1-.45-1-1v-18c0-.55.45-1 1-1h9v5c0 .55.45 1 1 1h5v2c0 .55.45 1 1 1s1-.45 1-1v-4c0-.27-.11-.52-.29-.71zm-5.71.71v-3.59l3.59 3.59z"/></g><g><circle cx="18" cy="23" r="1"/></g><g><path d="m17.76 21c-.55 0-1-.45-1-1 0-.85.37-1.67 1-2.26l.87-.81c.33-.31.45-.74.31-1.16-.06-.2-.28-.67-.94-.75-1.03-.13-2 .61-2 1.54 0 .55-.45 1-1 1s-1-.45-1-1c0-1.96 1.68-3.55 3.76-3.55.17 0 .34.01.5.03 1.23.15 2.22.97 2.59 2.12.37 1.16.04 2.4-.86 3.24l-.87.81c-.23.22-.36.5-.36.79 0 .55-.45 1-1 1z"/></g></svg>