<svg id="line_expanded" height="512" viewBox="0 0 16 16" width="512" xmlns="http://www.w3.org/2000/svg"><path d="m14.5 3h-3c-.276 0-.5.224-.5.5s.224.5.5.5h3c.275 0 .5.224.5.5v7c0 .276-.225.5-.5.5h-3.5v-.5c0-.276-.224-.5-.5-.5h-.5v-1h.5c.276 0 .5-.224.5-.5s-.224-.5-.5-.5h-.5v-1h.5c.276 0 .5-.224.5-.5s-.224-.5-.5-.5h-.5v-1h.5c.276 0 .5-.224.5-.5s-.224-.5-.5-.5h-.5v-1.5c0-.276-.224-.5-.5-.5h-1.586c-.132 0-.261-.053-.353-.146l-1.415-1.415c-.283-.283-.66-.439-1.06-.439h-3.586c-.827 0-1.5.673-1.5 1.5v9c0 .827.673 1.5 1.5 1.5h6.5v.5c0 .827.673 1.5 1.5 1.5s1.5-.673 1.5-1.5v-.5h3.5c.827 0 1.5-.673 1.5-1.5v-7c0-.827-.673-1.5-1.5-1.5zm-13 9c-.275 0-.5-.224-.5-.5v-9c0-.276.225-.5.5-.5h3.586c.134 0 .259.052.353.146l1.414 1.414c.28.28.667.44 1.061.44h1.086v1h-.5c-.276 0-.5.224-.5.5s.224.5.5.5h.5v1h-.5c-.276 0-.5.224-.5.5s.224.5.5.5h.5v1h-.5c-.276 0-.5.224-.5.5s.224.5.5.5h.5v1h-.5c-.276 0-.5.224-.5.5v.5zm8.5 1.5c0 .276-.225.5-.5.5s-.5-.224-.5-.5v-1.5h1z"/></svg>